# xmcd
#
# Track frame offsets:
#	150
#	866
#	18293
#	33141
#	49960
#	65397
#	88149
#	108726
#	125599
#	147557
#	167438
#
# Disc length: 2492 seconds
#
# Revision: 0
# Processed by: cddbd v1.5PL3 Copyright (c) Steve Scherf et al.
# Submitted via: EZCDDA 4.3.3.2
#
DISCID=8a09ba0b
DTITLE=Hard Knoxx - Midwest - The Campaign
DYEAR=1900
DGENRE=
TTITLE0=Intro
TTITLE1=Riot
TTITLE2=Midwest Swang
TTITLE3=Sexy Young Thing
TTITLE4=P.P.B.S.
TTITLE5=So Cold
TTITLE6=Pimp Back
TTITLE7=Feels No Better
TTITLE8=So Hot
TTITLE9=Head Bobbin'
TTITLE10=How We Ride
EXTD=
EXTT0=
EXTT1=
EXTT2=
EXTT3=
EXTT4=
EXTT5=
EXTT6=
EXTT7=
EXTT8=
EXTT9=
EXTT10=
PLAYORDER=
